<?xml version="1.0" encoding="UTF-8" standalone="no"?>
<!DOCTYPE svg PUBLIC "-//W3C//DTD SVG 1.1//EN" "http://www.w3.org/Graphics/SVG/1.1/DTD/svg11.dtd">
<svg width="100%" height="100%" viewBox="0 0 239 245" version="1.1" xmlns="http://www.w3.org/2000/svg" xmlns:xlink="http://www.w3.org/1999/xlink" xml:space="preserve" style="fill-rule:evenodd;clip-rule:evenodd;stroke-linejoin:round;stroke-miterlimit:1.41421;">
    <g id="layer1" transform="matrix(0.047619,0,0,0.047619,-30.5062,-27.8951)">
        <path d="M3136,5709C3133,5701 3070,5227 2996,4655C2921,4083 2854,3572 2846,3519C2818,3343 2764,3215 2701,3173C2630,3125 2573,3155 2515,3273C2403,3499 2388,4155 2481,4705C2513,4892 2513,4897 2500,4905C2479,4918 2386,4808 2337,4713C2281,4603 2250,4516 2217,4375C2157,4120 2138,3898 2136,3430C2135,3065 2134,3053 2112,2999C2080,2919 2022,2856 1967,2840C1928,2830 1917,2830 1879,2847C1796,2884 1750,2983 1720,3191C1656,3629 1673,4135 1767,4590C1809,4792 1804,4804 1709,4713C1501,4515 1371,4223 1319,3840C1302,3717 1302,3383 1319,3255C1326,3200 1348,3095 1367,3020C1406,2867 1419,2721 1401,2652C1376,2561 1272,2497 1189,2520C1086,2550 1007,2671 974,2850C930,3082 956,3692 1031,4229C1058,4420 1043,4438 978,4294C835,3978 720,3620 669,3335C642,3184 632,2885 649,2755C683,2499 769,2304 918,2148C1003,2060 1104,1988 1183,1960C1268,1930 1394,1918 1498,1930C1761,1960 2014,2089 2252,2317C2358,2418 2444,2475 2515,2491C2562,2501 2572,2500 2606,2484C2651,2462 2704,2389 2721,2327C2736,2272 2727,2193 2700,2140C2688,2116 2646,2060 2606,2016C2471,1863 2387,1713 2349,1553C2331,1477 2328,1445 2333,1320C2339,1151 2353,1092 2417,961C2501,785 2652,666 2865,608C2935,589 2971,586 3145,586C3324,585 3354,587 3429,608C3698,681 3870,855 3941,1125C3973,1243 3973,1464 3942,1574C3896,1733 3810,1883 3685,2020C3567,2148 3539,2255 3592,2371C3639,2473 3704,2513 3788,2491C3849,2474 3940,2414 4020,2336C4325,2040 4673,1892 4975,1930C5126,1949 5239,2007 5361,2129C5696,2464 5749,3058 5509,3797C5459,3950 5374,4170 5314,4299C5247,4441 5241,4419 5273,4158C5325,3737 5341,3522 5341,3225C5342,2890 5316,2745 5235,2623C5166,2519 5082,2492 4984,2541C4874,2595 4856,2734 4923,3000C4980,3226 4985,3270 4985,3550C4985,3752 4981,3828 4967,3915C4912,4241 4784,4515 4603,4696C4498,4801 4481,4797 4511,4675C4571,4423 4601,4164 4607,3834C4616,3356 4573,3022 4487,2908C4385,2773 4233,2831 4172,3030C4158,3078 4156,3126 4158,3395C4166,4132 4077,4586 3875,4843C3792,4948 3773,4934 3800,4790C3854,4503 3886,4106 3876,3855C3860,3479 3809,3264 3715,3182C3647,3122 3581,3151 3525,3265C3475,3365 3456,3452 3415,3766C3226,5225 3162,5702 3152,5712C3144,5720 3139,5720 3136,5709Z" style="fill-rule:nonzero;"/>
    </g>
</svg>
